<svg version="1.1" xmlns="http://www.w3.org/2000/svg" width="512px" height="512px" transform="rotate(0) scale(1, 1)">
<path d="M0 0 C1.79160301 -0.01270432 1.79160301 -0.01270432 3.61940002 -0.02566528 C6.87998544 -0.04499537 10.14021827 -0.05081654 13.40085053 -0.04891777 C16.13165746 -0.04879761 18.86241159 -0.05738031 21.59320372 -0.06569529 C28.04166423 -0.08489735 34.48999531 -0.08782531 40.93847656 -0.08105469 C47.56934561 -0.07442004 54.19965753 -0.09726171 60.83041364 -0.13436842 C66.54194883 -0.16515981 72.2533057 -0.17641518 77.96492213 -0.1725316 C81.36797337 -0.17047334 84.7705911 -0.17579821 88.173563 -0.20042419 C91.97422624 -0.22264657 95.77355867 -0.21289242 99.57421875 -0.1953125 C101.24303101 -0.21520737 101.24303101 -0.21520737 102.94555664 -0.23550415 C111.68980625 -0.14189011 117.40268319 2.61037675 124.73120117 7.10742188 C131.57940205 14.14585055 134.12131187 21.28169029 134.15820312 30.87548828 C134.16477432 31.62078796 134.17134552 32.36608765 134.17811584 33.13397217 C134.19779741 35.59647738 134.20950211 38.05892164 134.21948242 40.52148438 C134.22355795 41.36587444 134.22763348 42.21026451 134.2318325 43.08024216 C134.25267486 47.55267846 134.26698252 52.02508427 134.27636719 56.49755859 C134.28740667 61.09727372 134.32178313 65.69650178 134.36153889 70.2960453 C134.38779777 73.84960779 134.39606738 77.40305604 134.39964867 80.956707 C134.40449346 82.65103812 134.41604673 84.34536486 134.43468666 86.03960037 C134.54593548 96.82466696 133.90687816 105.41594531 127.85620117 114.66992188 C121.02671636 121.20247257 114.09501393 124.58850977 104.68823242 124.51757812 C103.62918953 124.5154557 103.62918953 124.5154557 102.54875183 124.51329041 C100.29702491 124.50769952 98.04539796 124.49514875 95.79370117 124.48242188 C94.26570782 124.47740569 92.7377129 124.47284299 91.2097168 124.46875 C87.46683982 124.45773308 83.72403744 124.44047475 79.98120117 124.41992188 C80.02047729 125.74382935 80.02047729 125.74382935 80.06054688 127.09448242 C80.14600392 130.38403768 80.20855862 133.67240609 80.25585938 136.96264648 C80.28093265 138.38373478 80.31500116 139.80469501 80.35839844 141.2253418 C80.41937975 143.27359649 80.44747879 145.32014071 80.46948242 147.36914062 C80.4956665 148.59979248 80.52185059 149.83044434 80.54882812 151.09838867 C79.8215901 155.3539041 78.32426338 156.77739767 74.98120117 159.41992188 C70.96972295 160.58689736 68.72412926 160.64851513 64.73120117 159.41992188 C61.2613948 156.89642633 60.00102479 154.48814058 58.98120117 150.41992188 C58.62786744 145.93294772 58.6980162 141.47961565 58.79370117 136.98242188 C58.80723633 135.77392578 58.82077148 134.56542969 58.8347168 133.3203125 C58.8698985 130.35332242 58.92369987 127.38656332 58.98120117 124.41992188 C52.71120117 124.41992188 46.44120117 124.41992188 39.98120117 124.41992188 C39.98120117 164.67992187 39.98120117 204.93992188 39.98120117 246.41992188 C46.25120117 246.41992188 52.52120117 246.41992188 58.98120117 246.41992188 C58.94639648 244.55207031 58.9115918 242.68421875 58.87573242 240.75976562 C58.84758673 238.29232673 58.82028741 235.82487807 58.79370117 233.35742188 C58.75599609 231.51374023 58.75599609 231.51374023 58.7175293 229.6328125 C58.62296772 217.93869713 58.62296772 217.93869713 61.98120117 212.41992188 C65.1321425 210.31929432 66.20363777 210.07678901 69.85620117 209.98242188 C70.69924805 209.94246094 71.54229492 209.9025 72.41088867 209.86132812 C74.98120117 210.41992188 74.98120117 210.41992188 79.98120117 215.41992188 C79.98120117 225.64992187 79.98120117 235.87992188 79.98120117 246.41992188 C107.04120117 246.41992188 134.10120117 246.41992188 161.98120117 246.41992188 C161.94639648 238.90984375 161.9115918 231.39976562 161.87573242 223.66210938 C161.8604038 218.9042891 161.8459619 214.14649927 161.8347168 209.38867188 C161.81678354 201.83684974 161.79556829 194.28513673 161.75488281 186.73339844 C161.72228655 180.64501881 161.70434745 174.55675621 161.69656944 168.46829605 C161.69102646 166.14547 161.68020243 163.82265035 161.664011 161.49987411 C161.64223364 158.2463573 161.63923444 154.99332407 161.640625 151.73974609 C161.62444626 150.29936226 161.62444626 150.29936226 161.60794067 148.82987976 C161.63862775 142.19439021 162.66705042 138.03532245 167.18391418 132.9304657 C168.041035 132.11318497 168.89815582 131.29590424 169.78125 130.45385742 C170.25663208 129.99570648 170.73201416 129.53755554 171.22180176 129.06552124 C172.24996126 128.07538384 173.28129606 127.08853509 174.31546974 126.10468102 C175.97236823 124.52407665 177.61541605 122.93023802 179.25505066 121.33174133 C183.91637102 116.78833456 188.5847702 112.25307798 193.30029297 107.76586914 C207.38116885 94.34605086 218.63070914 82.07247971 227.25341797 64.4387207 C229.64878373 59.76809728 231.35756699 57.01891054 235.98120117 54.41992188 C239.41517361 53.74477252 242.7434018 53.71816999 246.23510742 53.75585938 C247.70281837 53.74868393 247.70281837 53.74868393 249.20018005 53.74136353 C251.26188776 53.73797122 253.32364975 53.7471266 255.38525391 53.76806641 C258.53759711 53.79486997 261.68638918 53.76828059 264.83862305 53.73632812 C266.84579234 53.73963178 268.85295944 53.74603709 270.86010742 53.75585938 C271.79979874 53.74573822 272.73949005 53.73561707 273.70765686 53.72518921 C278.29844582 53.80729922 280.33816768 53.923718 284.07226562 56.80517578 C286.14248484 59.64083862 286.6604007 60.95115219 286.60620117 64.41992188 C286.6190918 65.24492188 286.63198242 66.06992188 286.64526367 66.91992188 C285.66373579 70.61508567 283.94988712 72.04472888 280.98120117 74.41992188 C278.05733826 74.85892615 275.74079172 75.00951085 272.83666992 74.90820312 C271.68198967 74.89759102 271.68198967 74.89759102 270.50398254 74.88676453 C268.05787814 74.85889113 265.61410733 74.79617324 263.16870117 74.73242188 C261.5053229 74.70732955 259.84190855 74.68451801 258.1784668 74.6640625 C254.1118196 74.60908858 250.04690529 74.52287114 245.98120117 74.41992188 C245.54155029 75.57633179 245.54155029 75.57633179 245.09301758 76.75610352 C243.98120117 79.41992188 243.98120117 79.41992188 242.19213867 82.04101562 C240.10945663 85.2359385 238.78593431 87.67448837 237.98120117 91.41992188 C239.11060834 95.60327198 241.57002484 99.06446815 244.02026367 102.58398438 C245.98120117 105.41992188 245.98120117 105.41992188 245.98120117 107.41992188 C246.97974121 107.39373779 247.97828125 107.36755371 249.00708008 107.34057617 C252.73048276 107.24971514 256.45378855 107.19254417 260.17797852 107.14526367 C261.78621936 107.1202006 263.3943472 107.08614017 265.00219727 107.04272461 C267.32100356 106.98170339 269.63829782 106.95363224 271.95776367 106.93164062 C272.67050446 106.9058342 273.38324524 106.88002777 274.11758423 106.85343933 C277.99790657 106.8512851 280.44686698 107.40902443 283.43505859 109.79418945 C285.98120117 112.41992187 285.98120117 112.41992187 286.74291992 114.91992188 C286.60859831 119.44443925 286.48252772 121.73756074 283.73120117 125.48242188 C278.92940577 128.865505 274.25259158 128.59217556 268.52416992 128.62304688 C267.70298172 128.62874695 266.88179352 128.63444702 266.03572083 128.64031982 C264.30003134 128.64975174 262.5643241 128.65629661 260.82861328 128.66015625 C258.18839874 128.66984956 255.54896716 128.7008844 252.90893555 128.73242188 C251.21818493 128.73895393 249.52742878 128.74420361 247.83666992 128.74804688 C247.05414352 128.76039368 246.27161713 128.77274048 245.46537781 128.78546143 C240.23933621 128.76447543 236.58597009 127.95962459 231.98120117 125.41992188 C230.36035156 123.6105957 230.36035156 123.6105957 229.32885742 121.62695312 C228.94536133 120.91474609 228.56186523 120.20253906 228.16674805 119.46875 C227.79614258 118.73076172 227.42553711 117.99277344 227.04370117 117.23242188 C226.64602539 116.48283203 226.24834961 115.73324219 225.83862305 114.9609375 C224.86736582 113.1237401 223.92164287 111.2730825 222.98120117 109.41992188 C222.5640107 109.78604332 222.14682022 110.15216476 221.71698761 110.5293808 C218.64472413 113.19782115 215.54883924 115.78474806 212.28869629 118.22131348 C199.27643675 128.02454377 184.75525344 139.41785942 181.67199707 156.22203064 C179.99704667 169.25833819 180.62129617 182.42358061 181.32037354 195.50982666 C181.59192276 201.2675978 181.6738941 207.02816861 181.77416992 212.79101562 C181.99620198 224.01079653 182.42014524 235.21231796 182.98120117 246.41992188 C184.94126099 246.38064575 184.94126099 246.38064575 186.94091797 246.34057617 C191.79556105 246.24997863 196.65012962 246.19263743 201.50537109 246.14526367 C203.60543388 246.12014136 205.70540941 246.0860373 207.80517578 246.04272461 C210.82630957 245.98197316 213.84628613 245.95368924 216.86791992 245.93164062 C218.27287971 245.89293098 218.27287971 245.89293098 219.70622253 245.85343933 C223.94563976 245.85162108 226.37244611 246.05846388 230.07206726 248.25517273 C232.9119208 252.96276501 232.68471729 257.1392159 232.640625 262.54418945 C232.6511087 263.6665802 232.66159241 264.78897095 232.6723938 265.94537354 C232.70117479 269.65201354 232.69484816 273.35772125 232.68823242 277.06445312 C232.70134549 279.63564731 232.7166485 282.20683118 232.73405457 284.77799988 C232.76988457 290.85174677 232.78364164 296.92517553 232.78667897 302.99901551 C232.79137143 309.91567346 232.82430062 316.83210736 232.85957682 323.74866641 C232.93149007 337.97238338 232.96802467 352.1960353 232.98120117 366.41992188 C233.79451904 366.75475586 234.60783691 367.08958984 235.44580078 367.43457031 C236.51838135 367.87833008 237.59096191 368.32208984 238.69604492 368.77929688 C239.75686279 369.21725586 240.81768066 369.65521484 241.91064453 370.10644531 C255.28654314 375.82818615 265.36743498 384.7547203 273.98120117 396.41992188 C274.71983398 397.41958984 274.71983398 397.41958984 275.47338867 398.43945312 C286.39717014 414.55372704 288.65226418 435.9831247 285.32885742 454.82617188 C282.12299795 467.92479081 275.97884768 479.41049182 266.98120117 489.41992188 C266.20389648 490.33644531 266.20389648 490.33644531 265.41088867 491.27148438 C254.55759123 503.21556548 237.2446546 511.34283778 221.25439453 512.64135742 C198.169248 513.56084224 178.59508168 509.25333793 160.98120117 493.41992188 C160.06467773 492.64261719 160.06467773 492.64261719 159.12963867 491.84960938 C147.18555756 480.99631193 139.05828527 463.6833753 137.75976562 447.69311523 C136.81135979 423.88186 141.65501376 404.4628114 157.98120117 386.41992188 C158.31120117 386.08992188 158.64120117 385.75992187 158.98120117 385.41992188 C133.90120117 385.41992188 108.82120117 385.41992188 82.98120117 385.41992188 C85.62120117 388.38992188 88.26120117 391.35992187 90.98120117 394.41992188 C103.23435246 411.48921123 106.16677914 432.25934622 103.69702148 452.78125 C101.25842137 466.57601206 94.25572974 479.10247443 84.98120117 489.41992188 C84.20389648 490.33644531 84.20389648 490.33644531 83.41088867 491.27148438 C72.55759123 503.21556548 55.2446546 511.34283778 39.25439453 512.64135742 C16.169248 513.56084224 -3.40491832 509.25333793 -21.01879883 493.41992188 C-21.93532227 492.64261719 -21.93532227 492.64261719 -22.87036133 491.84960938 C-34.81444244 480.99631193 -42.94171473 463.6833753 -44.24023438 447.69311523 C-45.18864021 423.88186 -40.34498624 404.4628114 -24.01879883 386.41992188 C-23.68879883 386.08992188 -23.35879883 385.75992187 -23.01879883 385.41992188 C-48.09879883 385.41992188 -73.17879883 385.41992188 -99.01879883 385.41992188 C-96.37879883 388.38992188 -93.73879883 391.35992187 -91.01879883 394.41992188 C-78.76564754 411.48921123 -75.83322086 432.25934622 -78.30297852 452.78125 C-80.74157863 466.57601206 -87.74427026 479.10247443 -97.01879883 489.41992188 C-97.53700195 490.0309375 -98.05520508 490.64195312 -98.58911133 491.27148438 C-109.44240877 503.21556548 -126.7553454 511.34283778 -142.74560547 512.64135742 C-165.830752 513.56084224 -185.40491832 509.25333793 -203.01879883 493.41992188 C-203.93532227 492.64261719 -203.93532227 492.64261719 -204.87036133 491.84960938 C-216.81444244 480.99631193 -224.94171473 463.6833753 -226.24023438 447.69311523 C-227.11233797 425.79755063 -223.55918798 407.52815017 -209.01879883 390.41992188 C-208.48641602 389.74316406 -207.9540332 389.06640625 -207.40551758 388.36914062 C-199.42575136 378.56107475 -188.5814417 372.22114619 -176.85742188 367.85083008 C-175.77862007 367.44813652 -175.77862007 367.44813652 -174.67802429 367.03730774 C-174.13047989 366.8335704 -173.58293549 366.62983307 -173.01879883 366.41992188 C-173.01825406 365.83185163 -173.01770929 365.24378138 -173.01714802 364.63789082 C-173.00217592 350.32396485 -172.95971199 336.01031534 -172.88670826 321.69656849 C-172.85206575 314.77448318 -172.82670375 307.85259685 -172.82324219 300.93041992 C-172.81987629 294.2517906 -172.79057856 287.57373754 -172.74536705 280.89523888 C-172.73236369 278.34555664 -172.72809433 275.79581462 -172.73264503 273.24610329 C-172.73753047 269.67824697 -172.71154657 266.11186476 -172.67822266 262.54418945 C-172.6868483 261.4868309 -172.69547394 260.42947235 -172.70436096 259.34007263 C-172.62949865 254.56796997 -172.58394429 252.18703202 -169.69091797 248.26013184 C-166.18312262 245.84441622 -163.98524499 245.8444806 -159.74926758 245.93164062 C-158.7277636 245.94225273 -158.7277636 245.94225273 -157.68562317 245.95307922 C-155.52469888 245.98092119 -153.36643061 246.04362661 -151.20629883 246.10742188 C-149.73563331 246.13251856 -148.2649269 246.15532934 -146.79418945 246.17578125 C-143.20056318 246.2264528 -139.61262872 246.32428477 -136.01879883 246.41992188 C-136.01879883 237.83992187 -136.01879883 229.25992188 -136.01879883 220.41992188 C-137.00879883 220.74992188 -137.99879883 221.07992187 -139.01879883 221.41992188 C-170.79504509 224.17333153 -197.4994463 213.78321264 -221.62036133 193.61914062 C-224.8202516 190.68503929 -226.34508941 188.53752908 -226.58129883 184.23242188 C-226.3044882 178.24054609 -223.31273007 175.36657865 -219.01879883 171.41992188 C-217.43124193 170.31167949 -215.84201456 169.20523996 -214.2288208 168.13465881 C-204.1452271 161.34986468 -193.9706702 153.33687413 -191.25286865 140.9208374 C-189.56185578 128.30857467 -189.89750705 115.58291208 -190.35327148 102.89624023 C-190.37771741 102.20448668 -190.40216333 101.51273314 -190.42735004 100.80001736 C-190.55119183 97.49473125 -190.71485603 94.20261762 -190.93528748 90.9016571 C-191.00159866 89.72706436 -191.06790985 88.55247162 -191.13623047 87.34228516 C-191.20878555 86.31563751 -191.28134064 85.28898987 -191.35609436 84.23123169 C-190.91943211 80.59171459 -189.53276094 79.02255367 -187.01879883 76.41992188 C-184.32297741 75.07201117 -182.55148985 75.49598364 -179.5480957 75.75415039 C-143.01161409 79.79930293 -143.01161409 79.79930293 -110.51879883 66.82226562 C-103.71891799 60.53258019 -97.6480418 53.31504839 -92.38696289 45.69102478 C-89.80959233 42.04837103 -88.7853951 40.63745637 -84.34765625 39.37817383 C-79.36089131 39.44071411 -76.45925743 41.1403522 -72.78051758 44.40820312 C-50.87249264 68.95674331 -43.65777265 96.97709044 -45.01879883 129.41992188 C-46.16835328 143.7365952 -51.28676726 157.98303031 -59.11254883 169.99023438 C-60.41686788 173.48715872 -59.3897558 174.93094349 -58.01879883 178.41992188 C-56.39494592 181.93027352 -54.66499118 185.3838759 -52.92504883 188.83789062 C-52.16581116 190.35567863 -52.16581116 190.35567863 -51.39123535 191.90412903 C-50.31716145 194.04925897 -49.24114593 196.19341767 -48.16333008 198.33666992 C-46.5481547 201.54903699 -44.93918529 204.76444832 -43.33129883 207.98046875 C-42.27958825 210.0789629 -41.22751527 212.17727547 -40.17504883 214.27539062 C-39.70796509 215.20844528 -39.24088135 216.14149994 -38.75964355 217.10282898 C-33.97223949 226.61310352 -28.98080962 235.99210136 -24.01879883 245.41992188 C-9.82879883 245.74992188 4.36120117 246.07992187 18.98120117 246.41992188 C18.98120117 206.15992188 18.98120117 165.89992187 18.98120117 124.41992188 C8.75120117 124.41992188 -1.47879883 124.41992188 -12.01879883 124.41992188 C-23.68610104 118.58627077 -28.36886249 115.88138126 -33.25708008 104.82617188 C-34.91927281 99.57534764 -35.14555038 94.19756892 -35.1640625 88.7253418 C-35.17044235 87.4367778 -35.1768222 86.14821381 -35.18339539 84.82060242 C-35.18492456 83.43053221 -35.18603826 82.04046149 -35.18676758 80.65039062 C-35.18998677 79.20461495 -35.19335133 77.75883959 -35.19685364 76.31306458 C-35.20282175 73.28967535 -35.20469595 70.26631461 -35.20410156 67.24291992 C-35.20400011 63.39338525 -35.21764559 59.54403569 -35.23487377 55.69454479 C-35.24606323 52.70973391 -35.24801865 49.7249668 -35.24749184 46.7401371 C-35.24866177 45.32215042 -35.25302721 43.90416224 -35.2608242 42.48619652 C-35.32258552 30.09414561 -34.88551018 19.47472513 -27.01879883 9.41992188 C-18.87289573 1.57143511 -10.97212122 -0.02874533 0 0 Z M-11.01879883 23.41992188 C-15.36980901 29.75593466 -14.45487603 37.44073831 -14.41723633 44.85742188 C-14.41926056 46.26554515 -14.42217489 47.6736674 -14.42593384 49.08178711 C-14.43034083 52.02370244 -14.42397904 54.9653433 -14.40991211 57.90722656 C-14.39282081 61.66303865 -14.4026708 65.41820744 -14.4206295 69.17399597 C-14.43151162 72.0789467 -14.42800084 74.98374693 -14.42024612 77.88870239 C-14.41825632 79.2728788 -14.42066017 80.65706923 -14.42768478 82.04122925 C-14.74236454 92.25230798 -14.74236454 92.25230798 -11.01879883 101.41992188 C-5.15593868 104.69080744 -0.04058938 104.84938844 6.57885742 104.80810547 C7.62202118 104.81336243 8.66518494 104.81861938 9.73995972 104.82403564 C13.17469428 104.837197 16.60896221 104.82851095 20.04370117 104.81835938 C22.4383147 104.82038121 24.83292763 104.82329357 27.22753906 104.82705688 C32.2408638 104.83147502 37.25402794 104.82506543 42.26733398 104.81103516 C48.68655684 104.79394382 55.10540337 104.8037877 61.52461243 104.82175255 C66.46776148 104.83260404 71.41082163 104.82913772 76.35397339 104.82136917 C78.72061203 104.81937095 81.08725879 104.82181312 83.45388794 104.82880783 C86.76399046 104.83644453 90.07348738 104.8247863 93.38354492 104.80810547 C94.84411819 104.81721451 94.84411819 104.81721451 96.334198 104.82650757 C101.96982639 104.77401627 106.03069595 104.1991502 110.98120117 101.41992188 C113.42712314 97.75103893 113.25055496 95.92673598 113.28759766 91.54931641 C113.30008293 90.50732086 113.30008293 90.50732086 113.31282043 89.4442749 C113.33692253 87.14703776 113.34569269 84.85008456 113.35229492 82.55273438 C113.36126124 80.95474156 113.37038309 79.35674962 113.37965393 77.75875854 C113.39614712 74.40799927 113.4038446 71.05733994 113.40673828 67.70654297 C113.41212199 63.41664115 113.44979891 59.12768103 113.49548244 54.83804512 C113.52525239 51.53686102 113.53246181 48.23590368 113.53346443 44.93459702 C113.53766706 43.35334841 113.55010325 41.77209916 113.57098198 40.19098282 C113.59789723 37.97639361 113.59307316 35.76398668 113.58056641 33.54931641 C113.58563705 32.29039581 113.5907077 31.03147522 113.59593201 29.73440552 C112.81007127 25.4972298 111.34036583 24.04147203 107.98120117 21.41992188 C105.10354405 20.46862091 102.46558841 20.29093754 99.44718933 20.27947998 C98.54307816 20.27376984 97.63896698 20.26805969 96.7074585 20.26217651 C95.72295715 20.26105865 94.73845581 20.2599408 93.72412109 20.25878906 C92.68139542 20.25382416 91.63866974 20.24885925 90.56434631 20.2437439 C87.11344748 20.2291342 83.66259461 20.22232233 80.21166992 20.21679688 C77.81276956 20.21104458 75.41386921 20.20528686 73.01496887 20.19952393 C67.98377264 20.18901743 62.95259238 20.18317241 57.92138672 20.1796875 C51.47857409 20.17420261 45.03597278 20.15017298 38.59322643 20.12171555 C33.63722621 20.10308084 28.68127682 20.09788312 23.72524452 20.09635162 C21.35022132 20.09332662 18.97519898 20.08530327 16.60021019 20.07216644 C13.27546535 20.05508851 9.9512359 20.0569907 6.62646484 20.06347656 C5.15882187 20.04965439 5.15882187 20.04965439 3.66152954 20.03555298 C-1.99411315 20.07006772 -6.04699858 20.6400259 -11.01879883 23.41992188 Z M-86.07650948 68.23153687 C-86.93008978 69.08696075 -87.78367008 69.94238464 -88.66311646 70.82373047 C-89.13851738 71.29742254 -89.6139183 71.77111462 -90.10372531 72.259161 C-91.70537826 73.85750342 -93.29975005 75.46292018 -94.89428711 77.06835938 C-96.03699531 78.21163135 -97.18014336 79.35446384 -98.32369995 80.49688721 C-101.43541539 83.60802683 -104.54090899 86.7253118 -107.64536142 89.84369659 C-110.88760686 93.09841123 -114.13548487 96.34749488 -117.38278198 99.59716797 C-123.53493929 105.75555128 -129.68197895 111.91901687 -135.82721794 118.0843029 C-142.82198922 125.10139839 -149.82241371 132.11284234 -156.82333016 139.123806 C-171.22814045 153.54954366 -185.62579965 167.98240054 -200.01879883 182.41992188 C-196.13235294 186.46861274 -196.13235294 186.46861274 -191.48754883 189.51757812 C-190.84809326 189.84234131 -190.2086377 190.16710449 -189.54980469 190.50170898 C-188.54445679 190.98716187 -188.54445679 190.98716187 -187.51879883 191.48242188 C-186.46801147 191.99784546 -186.46801147 191.99784546 -185.39599609 192.52368164 C-165.50906168 202.02208714 -142.93064964 203.47947243 -122.01879883 196.41992188 C-99.67052305 187.90746118 -82.84970487 172.6138519 -72.52270508 151.02539062 C-63.22247748 128.72900082 -63.70042824 105.45623247 -72.33129883 83.10742188 C-74.93004382 77.22392779 -78.05015489 71.49818666 -82.01879883 66.41992188 C-84.2255368 66.19965574 -84.2255368 66.19965574 -86.07650948 68.23153687 Z M-170.01879883 95.41992188 C-170.01879883 104.32992187 -170.01879883 113.23992187 -170.01879883 122.41992188 C-165.81233417 118.81438074 -161.8485601 115.37702185 -157.96020508 111.49414062 C-157.08041992 110.61564453 -156.20063477 109.73714844 -155.29418945 108.83203125 C-154.39893555 107.93291016 -153.50368164 107.03378906 -152.58129883 106.10742188 C-151.65897461 105.18896484 -150.73665039 104.27050781 -149.78637695 103.32421875 C-148.48023438 102.01614258 -148.48023438 102.01614258 -147.14770508 100.68164062 C-146.35436768 99.88717529 -145.56103027 99.09270996 -144.74365234 98.27416992 C-142.90528251 96.71996655 -142.90528251 96.71996655 -143.01879883 95.41992188 C-151.92879883 95.41992188 -160.83879883 95.41992188 -170.01879883 95.41992188 Z M-81.26879883 195.91992188 C-91.61281811 204.67422872 -102.40773484 210.01518016 -115.01879883 215.41992188 C-115.01879883 225.64992188 -115.01879883 235.87992188 -115.01879883 246.41992188 C-92.90879883 246.41992188 -70.79879883 246.41992188 -48.01879883 246.41992188 C-54.81229749 231.99556619 -54.81229749 231.99556619 -61.83520508 217.68945312 C-62.22199936 216.91727951 -62.60879364 216.1451059 -63.00730896 215.34953308 C-64.1966969 212.97618239 -65.38891077 210.60426642 -66.58129883 208.23242188 C-67.4076628 206.58473174 -68.23383528 204.93694556 -69.05981445 203.2890625 C-71.04395357 199.33157991 -73.0306208 195.37537682 -75.01879883 191.41992188 C-77.19402532 191.41992188 -79.7873944 194.63241855 -81.26879883 195.91992188 Z M-152.01879883 267.41992188 C-152.01879883 299.42992187 -152.01879883 331.43992187 -152.01879883 364.41992188 C-31.89879883 364.41992188 88.22120117 364.41992188 211.98120117 364.41992188 C211.98120117 332.40992188 211.98120117 300.39992188 211.98120117 267.41992188 C91.86120117 267.41992188 -28.25879883 267.41992188 -152.01879883 267.41992188 Z M-192.01879883 402.41992188 C-203.59012183 416.28140255 -206.31274331 430.92522839 -205.01879883 448.41992188 C-202.49794083 461.81648153 -194.201759 474.03719224 -183.33129883 482.10742188 C-169.68757814 491.23805885 -154.43888038 493.75703399 -138.38598633 490.73632812 C-124.19075138 486.27020329 -112.49354492 477.27794009 -105.01879883 464.41992188 C-98.67060742 451.11660603 -96.10639523 436.21671091 -100.64379883 421.79492188 C-106.2858046 407.73939872 -115.38639368 396.493585 -129.18676758 389.90820312 C-151.21423616 380.54451673 -175.23998641 384.83712469 -192.01879883 402.41992188 Z M-10.01879883 402.41992188 C-21.59012183 416.28140255 -24.31274331 430.92522839 -23.01879883 448.41992188 C-20.49794083 461.81648153 -12.201759 474.03719224 -1.33129883 482.10742188 C12.31242186 491.23805885 27.56111962 493.75703399 43.61401367 490.73632812 C57.80924862 486.27020329 69.50645508 477.27794009 76.98120117 464.41992188 C83.32939258 451.11660603 85.89360477 436.21671091 81.35620117 421.79492188 C75.7141954 407.73939872 66.61360632 396.493585 52.81323242 389.90820312 C30.78576384 380.54451673 6.76001359 384.83712469 -10.01879883 402.41992188 Z M171.98120117 402.41992188 C160.40987817 416.28140255 157.68725669 430.92522839 158.98120117 448.41992188 C161.50205917 461.81648153 169.798241 474.03719224 180.66870117 482.10742188 C194.31242186 491.23805885 209.56111962 493.75703399 225.61401367 490.73632812 C239.80924862 486.27020329 251.50645508 477.27794009 258.98120117 464.41992188 C265.32939258 451.11660603 267.89360477 436.21671091 263.35620117 421.79492188 C257.7141954 407.73939872 248.61360632 396.493585 234.81323242 389.90820312 C212.78576384 380.54451673 188.76001359 384.83712469 171.98120117 402.41992188 Z " fill="#ffffff" transform="translate(226.018798828125,-0.419921875)"/>
<path d="M0 0 C8.72879324 5.40474698 14.26227376 12.64985079 16.6875 22.6640625 C18.05441729 33.94960273 16.74719089 43.89027225 9.7734375 53.2265625 C2.94496807 60.77512507 -5.05932882 64.68037733 -15.25244141 65.25073242 C-25.61791173 65.44359552 -34.49593096 62.58915507 -42.3125 55.6640625 C-49.14404691 47.28990822 -52.96265919 37.83242611 -52.09765625 26.96484375 C-50.76833897 17.88750574 -47.26949296 10.75143134 -40.3125 4.6640625 C-39.590625 3.9834375 -38.86875 3.3028125 -38.125 2.6015625 C-26.77817904 -5.21513638 -12.40367388 -6.03330876 0 0 Z M-29.3125 23.6640625 C-31.19105086 27.42116422 -30.97629578 31.58384988 -30.3125 35.6640625 C-28.31238833 39.09810038 -25.88898506 41.87581997 -22.3125 43.6640625 C-18.01037555 44.28539309 -13.97854513 44.63442929 -10.1328125 42.39453125 C-7.05325659 39.76860287 -4.60327311 37.67739023 -4.00390625 33.52734375 C-3.75321139 28.56662416 -3.88330641 25.47655353 -7.1875 21.6015625 C-10.33126451 18.37426801 -12.49619202 17.45416689 -17 17.2265625 C-22.70352947 17.25136045 -25.69583025 19.39484377 -29.3125 23.6640625 Z " fill="#ffffff" transform="translate(293.3125,31.3359375)"/>
<path d="M0 0 C8.72879324 5.40474698 14.26227376 12.64985079 16.6875 22.6640625 C18.05441729 33.94960273 16.74719089 43.89027225 9.7734375 53.2265625 C2.94320768 60.7770711 -5.05771212 64.67517882 -15.25146484 65.25195312 C-25.79054932 65.44171158 -34.36884931 62.73089289 -42.25 55.6015625 C-49.37933039 47.72041181 -52.09014908 39.14211182 -51.90039062 28.60302734 C-51.32361632 18.40927462 -47.4255086 10.40835482 -39.875 3.578125 C-28.23505257 -5.11634793 -13.05927661 -6.35220248 0 0 Z M-29.3125 23.6640625 C-31.19105086 27.42116422 -30.97629578 31.58384988 -30.3125 35.6640625 C-28.31238833 39.09810038 -25.88898506 41.87581997 -22.3125 43.6640625 C-18.01037555 44.28539309 -13.97854513 44.63442929 -10.1328125 42.39453125 C-7.05325659 39.76860287 -4.60327311 37.67739023 -4.00390625 33.52734375 C-3.75321139 28.56662416 -3.88330641 25.47655353 -7.1875 21.6015625 C-10.33126451 18.37426801 -12.49619202 17.45416689 -17 17.2265625 C-22.70352947 17.25136045 -25.69583025 19.39484377 -29.3125 23.6640625 Z " fill="#ffffff" transform="translate(455.3125,407.3359375)"/>
<path d="M0 0 C8.72879324 5.40474698 14.26227376 12.64985079 16.6875 22.6640625 C18.05441729 33.94960273 16.74719089 43.89027225 9.7734375 53.2265625 C2.94320768 60.7770711 -5.05771212 64.67517882 -15.25146484 65.25195312 C-25.79054932 65.44171158 -34.36884931 62.73089289 -42.25 55.6015625 C-49.37933039 47.72041181 -52.09014908 39.14211182 -51.90039062 28.60302734 C-51.32361632 18.40927462 -47.4255086 10.40835482 -39.875 3.578125 C-28.23505257 -5.11634793 -13.05927661 -6.35220248 0 0 Z M-29.3125 23.6640625 C-31.19105086 27.42116422 -30.97629578 31.58384988 -30.3125 35.6640625 C-28.31238833 39.09810038 -25.88898506 41.87581997 -22.3125 43.6640625 C-18.01037555 44.28539309 -13.97854513 44.63442929 -10.1328125 42.39453125 C-7.05325659 39.76860287 -4.60327311 37.67739023 -4.00390625 33.52734375 C-3.75321139 28.56662416 -3.88330641 25.47655353 -7.1875 21.6015625 C-10.33126451 18.37426801 -12.49619202 17.45416689 -17 17.2265625 C-22.70352947 17.25136045 -25.69583025 19.39484377 -29.3125 23.6640625 Z " fill="#ffffff" transform="translate(273.3125,407.3359375)"/>
<path d="M0 0 C8.72879324 5.40474698 14.26227376 12.64985079 16.6875 22.6640625 C18.05441729 33.94960273 16.74719089 43.89027225 9.7734375 53.2265625 C2.94320768 60.7770711 -5.05771212 64.67517882 -15.25146484 65.25195312 C-25.79054932 65.44171158 -34.36884931 62.73089289 -42.25 55.6015625 C-49.37933039 47.72041181 -52.09014908 39.14211182 -51.90039062 28.60302734 C-51.32361632 18.40927462 -47.4255086 10.40835482 -39.875 3.578125 C-28.23505257 -5.11634793 -13.05927661 -6.35220248 0 0 Z M-29.3125 23.6640625 C-31.19105086 27.42116422 -30.97629578 31.58384988 -30.3125 35.6640625 C-28.31238833 39.09810038 -25.88898506 41.87581997 -22.3125 43.6640625 C-18.01037555 44.28539309 -13.97854513 44.63442929 -10.1328125 42.39453125 C-7.05325659 39.76860287 -4.60327311 37.67739023 -4.00390625 33.52734375 C-3.75321139 28.56662416 -3.88330641 25.47655353 -7.1875 21.6015625 C-10.33126451 18.37426801 -12.49619202 17.45416689 -17 17.2265625 C-22.70352947 17.25136045 -25.69583025 19.39484377 -29.3125 23.6640625 Z " fill="#ffffff" transform="translate(91.3125,407.3359375)"/>
<path d="M0 0 C1.38368271 -0.01496269 1.38368271 -0.01496269 2.7953186 -0.03022766 C3.80525879 -0.03089233 4.81519897 -0.03155701 5.85574341 -0.03224182 C6.92104279 -0.04056534 7.98634216 -0.04888885 9.08392334 -0.0574646 C12.61483384 -0.0816124 16.1455598 -0.09034247 19.67654419 -0.09693909 C22.12650611 -0.10590148 24.57646746 -0.11502325 27.02642822 -0.1242981 C32.16616142 -0.14080346 37.30582935 -0.14849109 42.44558716 -0.15138245 C49.03564622 -0.15676897 55.6250931 -0.19445452 62.21497917 -0.24012661 C67.27643074 -0.26984954 72.33773402 -0.27710497 77.39926529 -0.2781086 C79.82898895 -0.28232003 82.2587127 -0.29479104 84.68835068 -0.31562614 C88.08575378 -0.34244139 91.48172649 -0.33774346 94.87918091 -0.32521057 C96.38801849 -0.34746201 96.38801849 -0.34746201 97.92733765 -0.37016296 C102.58225541 -0.32119281 104.78244271 -0.26091587 108.59796143 2.59677124 C111.00024349 5.98391443 111.49685669 8.12770941 111.49685669 12.27415466 C109.98169041 16.2893453 109.09133139 17.87783819 105.49685669 20.27415466 C103.423769 20.53421688 103.423769 20.53421688 100.99371338 20.54830933 C100.07125824 20.55828445 99.1488031 20.56825958 98.19839478 20.57853699 C97.18845459 20.57920166 96.1785144 20.57986633 95.13796997 20.58055115 C94.07267059 20.58887466 93.00737122 20.59719818 91.90979004 20.60577393 C88.37887954 20.62992173 84.84815358 20.6386518 81.31716919 20.64524841 C78.86720726 20.65421081 76.41724592 20.66333258 73.96728516 20.67260742 C68.82755196 20.68911279 63.68788403 20.69680041 58.54812622 20.69969177 C51.95806716 20.7050783 45.36862028 20.74276384 38.77873421 20.78843594 C33.71728264 20.81815887 28.65597936 20.8254143 23.59444809 20.82641792 C21.16472443 20.83062936 18.73500068 20.84310036 16.3053627 20.86393547 C12.90795959 20.89075072 9.51198689 20.88605279 6.11453247 20.8735199 C4.60569489 20.89577133 4.60569489 20.89577133 3.06637573 20.91847229 C-1.61300161 20.86924482 -3.7862398 20.81921707 -7.60424805 17.91638184 C-9.84765826 14.79477763 -10.50314331 13.1209479 -10.50314331 9.27415466 C-8.4678189 3.16818143 -6.68073598 0.03874311 0 0 Z " fill="#ffffff" transform="translate(295.5031433105469,288.72584533691406)"/>
<path d="M0 0 C0.825 -0.01289063 1.65 -0.02578125 2.5 -0.0390625 C6.24417471 0.95548391 7.61965834 2.57903977 10 5.625 C10.73217598 8.7934501 10.70145821 11.88388948 10.6640625 15.125 C10.66884613 16.03830078 10.67362976 16.95160156 10.67855835 17.89257812 C10.68195317 19.81902799 10.67277994 21.74553579 10.65185547 23.671875 C10.62508281 26.61589348 10.65161622 29.5560997 10.68359375 32.5 C10.68028958 34.37500839 10.67388318 36.25001442 10.6640625 38.125 C10.67418365 39.00220703 10.68430481 39.87941406 10.69473267 40.78320312 C10.61016103 45.20665069 10.43842535 47.06230731 7.63818359 50.65625 C4.52153588 52.98205485 2.88814867 53.625 -1 53.625 C-5.34986291 52.1750457 -7.4325645 51.47615325 -10 47.625 C-10.27415466 45.70339966 -10.27415466 45.70339966 -10.30639648 43.50830078 C-10.32238388 42.68379425 -10.33837128 41.85928772 -10.35484314 41.00979614 C-10.36020584 40.12226654 -10.36556854 39.23473694 -10.37109375 38.3203125 C-10.38012222 37.40418182 -10.3891507 36.48805115 -10.39845276 35.54415894 C-10.41296085 33.6058072 -10.42184338 31.66740642 -10.42553711 29.72900391 C-10.43742887 26.7677123 -10.48660392 23.80850769 -10.53710938 20.84765625 C-10.54657427 18.96355183 -10.55380899 17.07943462 -10.55859375 15.1953125 C-10.57812607 14.31183136 -10.59765839 13.42835022 -10.61778259 12.51809692 C-10.58505962 8.04494574 -10.45324305 6.20742872 -7.62133789 2.56835938 C-4.77968861 0.46166959 -3.4921008 -0.05456407 0 0 Z " fill="#ffffff" transform="translate(190,288.375)"/>
<path d="M0 0 C0.825 -0.01289063 1.65 -0.02578125 2.5 -0.0390625 C6.24417471 0.95548391 7.61965834 2.57903977 10 5.625 C10.73217598 8.7934501 10.70145821 11.88388948 10.6640625 15.125 C10.66884613 16.03830078 10.67362976 16.95160156 10.67855835 17.89257812 C10.68195317 19.81902799 10.67277994 21.74553579 10.65185547 23.671875 C10.62508281 26.61589348 10.65161622 29.5560997 10.68359375 32.5 C10.68028958 34.37500839 10.67388318 36.25001442 10.6640625 38.125 C10.67418365 39.00220703 10.68430481 39.87941406 10.69473267 40.78320312 C10.61016103 45.20665069 10.43842535 47.06230731 7.63818359 50.65625 C4.52153588 52.98205485 2.88814867 53.625 -1 53.625 C-5.34986291 52.1750457 -7.4325645 51.47615325 -10 47.625 C-10.27415466 45.70339966 -10.27415466 45.70339966 -10.30639648 43.50830078 C-10.32238388 42.68379425 -10.33837128 41.85928772 -10.35484314 41.00979614 C-10.36020584 40.12226654 -10.36556854 39.23473694 -10.37109375 38.3203125 C-10.38012222 37.40418182 -10.3891507 36.48805115 -10.39845276 35.54415894 C-10.41296085 33.6058072 -10.42184338 31.66740642 -10.42553711 29.72900391 C-10.43742887 26.7677123 -10.48660392 23.80850769 -10.53710938 20.84765625 C-10.54657427 18.96355183 -10.55380899 17.07943462 -10.55859375 15.1953125 C-10.57812607 14.31183136 -10.59765839 13.42835022 -10.61778259 12.51809692 C-10.58505962 8.04494574 -10.45324305 6.20742872 -7.62133789 2.56835938 C-4.77968861 0.46166959 -3.4921008 -0.05456407 0 0 Z " fill="#ffffff" transform="translate(148,288.375)"/>
<path d="M0 0 C0.825 -0.01289063 1.65 -0.02578125 2.5 -0.0390625 C6.24417471 0.95548391 7.61965834 2.57903977 10 5.625 C10.73217598 8.7934501 10.70145821 11.88388948 10.6640625 15.125 C10.66884613 16.03830078 10.67362976 16.95160156 10.67855835 17.89257812 C10.68195317 19.81902799 10.67277994 21.74553579 10.65185547 23.671875 C10.62508281 26.61589348 10.65161622 29.5560997 10.68359375 32.5 C10.68028958 34.37500839 10.67388318 36.25001442 10.6640625 38.125 C10.67418365 39.00220703 10.68430481 39.87941406 10.69473267 40.78320312 C10.61016103 45.20665069 10.43842535 47.06230731 7.63818359 50.65625 C4.52153588 52.98205485 2.88814867 53.625 -1 53.625 C-5.34986291 52.1750457 -7.4325645 51.47615325 -10 47.625 C-10.27415466 45.70339966 -10.27415466 45.70339966 -10.30639648 43.50830078 C-10.32238388 42.68379425 -10.33837128 41.85928772 -10.35484314 41.00979614 C-10.36020584 40.12226654 -10.36556854 39.23473694 -10.37109375 38.3203125 C-10.38012222 37.40418182 -10.3891507 36.48805115 -10.39845276 35.54415894 C-10.41296085 33.6058072 -10.42184338 31.66740642 -10.42553711 29.72900391 C-10.43742887 26.7677123 -10.48660392 23.80850769 -10.53710938 20.84765625 C-10.54657427 18.96355183 -10.55380899 17.07943462 -10.55859375 15.1953125 C-10.57812607 14.31183136 -10.59765839 13.42835022 -10.61778259 12.51809692 C-10.58505962 8.04494574 -10.45324305 6.20742872 -7.62133789 2.56835938 C-4.77968861 0.46166959 -3.4921008 -0.05456407 0 0 Z " fill="#ffffff" transform="translate(106,288.375)"/>
<path d="M0 0 C3.02182284 2.05741129 4.69011377 3.49949825 5.4453125 7.15625 C5.65056702 11.26134032 5.33688603 13.46098235 3.125 17 C-0.14515677 20.0777946 -2.46385754 20.35512509 -6.96484375 20.2734375 C-10.31522623 19.82329014 -11.81086861 18.51106247 -14 16 C-15.91101752 11.7798363 -16.19957139 9.7483927 -15 5.25 C-11.25187878 -0.84069698 -6.74932788 -1.96344084 0 0 Z " fill="#ffffff" transform="translate(301,174)"/>
<path d="M0 0 C2.8367179 1.70705148 3.34742379 2.91519108 5 6 C5.91506578 10.22908777 5.4917442 13.22960075 3.125 16.9375 C-0.35839365 20.31844089 -3.03626432 20.40432349 -7.73828125 20.34375 C-10 20 -10 20 -13 17.875 C-15.26157198 14.62399027 -16 12.95490344 -16 9 C-13.1281398 0.3844194 -8.68005844 -1.5480359 0 0 Z " fill="#ffffff" transform="translate(261,289)"/>
</svg>